<?xml version="1.0" encoding="UTF-8"?>
<svg id="Layer_1" xmlns="http://www.w3.org/2000/svg" version="1.1" viewBox="0 0 225.2 62.96">
  <!-- Generator: Adobe Illustrator 30.4.0, SVG Export Plug-In . SVG Version: 2.1.4 Build 226)  -->
  <defs>
    <style>
      .st0 {
        fill: #c8a96e;
      }
    </style>
  </defs>
  <path class="st0" d="M54.8,48.83c.29,5.33.58,8.93,5.47,8.93v.43h-18.22v-.43c4.9,0,5.18-3.6,4.9-8.93l-2.02-37.16-16.63,46.52h-.58L10.8,11.67l-1.73,32.83c-.43,7.56,1.37,13.25,6.26,13.25v.43H1.66v-.43c4.61-.36,5.76-5.76,6.12-13.25l1.58-30.39c.29-5.18-2.3-7.34-5.76-7.92v-.43h13.61l14.33,39.39L45.65,5.77h12.46v.43c-4.9.43-5.47,3.6-5.18,8.93l1.87,33.7Z"/>
  <path class="st0" d="M87.6,49.33c-2.66,4.68-7.13,9.72-14.91,9.72-10.08,0-15.84-8.57-15.84-19.15,0-11.67,7.63-20.31,17.5-20.31,7.99,0,13.61,5.54,13.18,14.69h-22.83c-.07.72-.07,1.51-.07,2.23,0,10.58,3.67,18.36,11.67,18.36,4.68,0,8.57-2.52,10.87-5.83,0,0,.43.29.43.29ZM64.85,33.13h15.41c.58-7.63-1.15-12.53-6.26-12.53-5.4,0-8.42,5.83-9.14,12.53h0Z"/>
  <path class="st0" d="M121.99,48.68c.14,6.34,2.35,9.07,5.49,9.07v.43l-11.65.02h-.29l-.97-5.78c-2.66,3.67-6.34,6.62-11.3,6.62-8.21,0-14.26-7.63-14.26-18.87,0-12.46,7.63-20.59,18.07-20.59,2.81,0,5.33.72,7.42,1.8v-9.72c0-4.61-1.22-5.9-3.67-6.77v-.43l10.87-2.59h.29v46.8h0ZM114.5,51.42v-19.73c0-6.48-2.66-11.09-7.7-11.09-6.7,0-9.72,8.28-9.72,17.28,0,9.58,3.02,17.43,9.79,17.43,3.1,0,5.62-1.73,7.63-3.89Z"/>
  <path class="st0" d="M127.48,58.19v-.43c2.95,0,3.17-2.45,3.17-7.06v-20.59c0-4.61-1.22-5.9-3.67-6.77v-.43l10.87-3.17h.29v30.96c0,4.61,1.46,7.05,4.41,7.05v.43h-15.07ZM128.99,9.37c0-2.59,2.09-4.68,4.75-4.68s4.68,2.09,4.68,4.68-2.09,4.75-4.68,4.75-4.75-2.09-4.75-4.75Z"/>
  <path class="st0" d="M142.54,58.18v-.43c2.95,0,4.91-2.45,4.91-7.05V11.67c0-4.61-1.22-5.9-3.67-6.77v-.43l10.87-2.59h.29v48.82c0,4.61.22,7.06,3.17,7.06v.43h-15.57Z"/>
  <path class="st0" d="M189.86,53.79c-1.15,2.23-3.74,5.26-7.63,5.26-4.1,0-4.97-3.46-5.11-6.12-2.81,3.6-7.13,6.12-11.23,6.12-4.97,0-8.42-3.1-8.42-7.63,0-5.26,3.96-8.86,12.6-11.31l6.7-1.87v-5.11c0-2.09,0-9.79-7.13-9.79-4.75,0-8.28,3.31-10.44,7.49l-.43-.22c1.44-4.75,6.12-11.02,14.4-11.02,7.27,0,11.02,4.82,11.02,12.02v18.22c0,2.95.07,5.33,2.3,5.33,1.51,0,2.52-1.08,2.95-1.66l.43.29h0ZM176.76,52.35v-13.1l-4.25,1.44c-6.05,2.09-7.78,4.25-7.78,8.5,0,3.82,2.3,6.19,5.4,6.19,2.38,0,4.9-1.51,6.62-3.02h.01Z"/>
  <path class="st0" d="M188.19,39.46c0-11.95,7.49-19.87,17.86-19.87s17.71,7.49,17.71,19.59-7.49,19.87-17.86,19.87-17.71-7.49-17.71-19.59ZM215.7,39.32c0-10.22-3.17-18.72-9.79-18.72s-9.65,8.06-9.65,18.72,3.17,18.72,9.79,18.72,9.65-8.06,9.65-18.72Z"/>
</svg>